<?xml version="1.0" standalone="no"?>
<!DOCTYPE svg PUBLIC "-//W3C//DTD SVG 20010904//EN"
 "http://www.w3.org/TR/2001/REC-SVG-20010904/DTD/svg10.dtd">
<svg version="1.0" xmlns="http://www.w3.org/2000/svg"
 width="500.000000pt" height="500.000000pt" viewBox="0 0 500.000000 500.000000"
 preserveAspectRatio="xMidYMid meet">
<metadata>
Created by potrace 1.16, written by Peter Selinger 2001-2019
</metadata>
<g transform="translate(0.000000,500.000000) scale(0.100000,-0.100000)"
fill="#000000" stroke="none">
<path d="M2547 4489 c-80 -19 -163 -75 -219 -148 -36 -46 -68 -149 -68 -215 0
-146 93 -288 225 -342 25 -11 45 -25 45 -32 0 -7 -9 -30 -20 -52 -25 -49 -75
-78 -200 -120 -124 -40 -308 -132 -390 -194 -188 -142 -320 -363 -355 -592 -8
-55 -15 -102 -15 -106 0 -5 -56 -8 -125 -8 l-125 0 2 -262 3 -263 118 -3 117
-3 0 146 0 145 124 0 123 0 6 168 c6 184 22 259 79 362 103 185 244 288 531
389 66 23 137 54 160 69 l40 29 48 -33 c26 -17 92 -46 146 -64 285 -94 452
-218 542 -401 58 -119 71 -181 78 -361 l6 -157 121 -3 121 -3 0 -415 0 -415
-1022 -3 -1023 -2 0 -120 0 -120 1530 0 1531 0 -3 703 c-3 694 -3 703 -24 748
-28 61 -90 122 -156 155 -63 31 -94 58 -115 98 l-16 30 -18 -36 c-20 -40 -49
-63 -121 -97 -59 -28 -130 -106 -154 -169 -16 -41 -18 -88 -21 -362 -2 -173
-3 -321 -3 -327 0 -8 -15 -13 -40 -13 l-40 0 0 -120 0 -120 160 0 160 0 0 424
0 425 23 27 c31 35 82 38 109 5 17 -22 18 -54 18 -577 l0 -554 -265 0 -265 0
0 540 0 540 -129 0 -128 0 -6 73 c-12 135 -65 285 -142 402 -54 80 -156 188
-230 240 -83 59 -261 147 -375 184 -52 17 -113 41 -135 54 -66 37 -112 127
-65 127 43 0 131 43 177 86 33 32 39 40 18 27 -80 -51 -155 -62 -242 -38 -217
61 -295 319 -147 484 70 78 110 96 219 96 80 0 97 -3 145 -28 l55 -29 -25 27
c-81 88 -232 132 -353 104z"/>
<path d="M2711 4257 c-6 -15 -14 -39 -17 -52 -4 -16 -14 -25 -28 -26 -28 -2
-90 -7 -95 -8 -5 -1 54 -47 78 -61 13 -7 12 -14 -2 -52 -26 -67 -22 -73 25
-39 23 17 47 31 52 31 6 0 29 -14 50 -30 22 -17 41 -28 43 -27 2 2 -4 23 -12
47 -21 60 -20 64 26 94 22 15 39 30 36 32 -5 5 -48 12 -83 13 -16 1 -26 14
-42 54 l-20 52 -11 -28z"/>
<path d="M2455 3222 c-274 -99 -398 -193 -471 -359 -37 -83 -44 -158 -44 -475
l0 -298 -394 0 -395 0 -3 338 c-3 297 -5 342 -21 376 -29 66 -82 120 -149 156
-74 38 -104 64 -126 105 -11 21 -17 26 -20 15 -12 -38 -48 -72 -117 -110 -44
-24 -90 -60 -114 -87 -72 -85 -71 -66 -71 -833 l-1 -685 503 0 503 0 3 208 2
207 -120 0 -120 0 0 -90 0 -90 -267 2 -268 3 0 551 c0 595 -2 574 53 595 27
10 76 -10 86 -36 3 -9 6 -208 6 -441 l0 -424 635 0 634 0 3 438 3 437 28 57
c45 91 128 147 310 208 83 27 103 25 239 -30 156 -62 220 -120 252 -229 14
-46 16 -117 16 -468 l0 -413 285 0 285 0 0 120 0 120 -167 0 -168 0 3 277 c2
153 -2 314 -7 358 -22 167 -135 322 -299 408 -72 38 -309 127 -352 132 -14 2
-83 -18 -155 -43z"/>
</g>
</svg>
